<svg width="72" height="26" viewBox="0 0 72 26" fill="none" xmlns="http://www.w3.org/2000/svg">
<path d="M35.6516 7.91439L39.0554 7.70163C39.1297 8.25266 39.2798 8.67216 39.506 8.96014C39.8754 9.42693 40.4019 9.66032 41.0856 9.66032C41.5957 9.66032 41.9893 9.54126 42.2663 9.30314C42.3932 9.20427 42.4963 9.07838 42.568 8.93469C42.6397 8.791 42.6782 8.63315 42.6807 8.47272C42.6786 8.31892 42.6427 8.16743 42.5756 8.02888C42.5085 7.89033 42.4118 7.76807 42.2922 7.67068C42.0333 7.43514 41.4226 7.21206 40.4602 7.00145C38.891 6.65071 37.7719 6.18393 37.103 5.60109C36.7775 5.32954 36.5175 4.98846 36.3425 4.60317C36.1674 4.21787 36.0817 3.79826 36.0918 3.37548C36.0943 2.77802 36.2745 2.19469 36.6097 1.69918C36.9925 1.14071 37.5333 0.708063 38.1634 0.456141C38.8539 0.154407 39.8033 0.00354004 41.0118 0.00354004C42.4912 0.00354004 43.6193 0.277766 44.3962 0.826217C45.173 1.37467 45.6352 2.24634 45.7828 3.44124L42.4101 3.63724C42.3237 3.12146 42.1356 2.74408 41.8456 2.5051C41.5555 2.26612 41.1585 2.14705 40.6544 2.14791C40.2388 2.14791 39.9255 2.23689 39.7157 2.41225C39.6167 2.48813 39.5366 2.58582 39.4818 2.69768C39.427 2.80954 39.3989 2.93252 39.3998 3.05699C39.403 3.15357 39.4279 3.24822 39.4727 3.33392C39.5175 3.41963 39.5811 3.49421 39.6588 3.55214C39.8271 3.70429 40.2271 3.84614 40.859 3.97766C42.423 4.31292 43.5451 4.65248 44.2253 4.99634C44.9054 5.34019 45.3974 5.76614 45.7013 6.27419C46.0113 6.78957 46.1714 7.38068 46.1635 7.98144C46.1672 8.70887 45.9531 9.42089 45.5485 10.0265C45.1274 10.658 44.5283 11.1515 43.8265 11.4449C43.0885 11.7673 42.1589 11.9285 41.0376 11.9285C39.0688 11.9285 37.705 11.5511 36.9463 10.7963C36.1876 10.0416 35.756 9.08092 35.6516 7.91439ZM0.811793 11.7351V0.198249H6.7753C7.881 0.198249 8.72602 0.292379 9.31038 0.480641C9.88598 0.663741 10.3836 1.03318 10.7242 1.53026C11.0949 2.08199 11.2837 2.73512 11.2641 3.39869C11.2791 3.97777 11.1359 4.55003 10.8498 5.05436C10.5752 5.52189 10.1864 5.91267 9.71951 6.19038C9.32697 6.40601 8.90335 6.55999 8.46363 6.64685C8.79265 6.74334 9.10612 6.8862 9.39454 7.07108C9.60888 7.24852 9.80179 7.45017 9.96939 7.67197C10.158 7.8924 10.3249 8.13032 10.4679 8.38246L12.2002 11.7351H8.15678L6.24576 8.2058C6.00322 7.74934 5.78743 7.45276 5.5984 7.31608C5.34081 7.13829 5.03394 7.04498 4.72057 7.04916H4.40207V11.7351H0.811793ZM4.40207 4.86997H5.91431C6.23435 4.84617 6.55156 4.79352 6.86205 4.71265C7.09407 4.66832 7.30101 4.53905 7.44209 4.35031C7.59128 4.15967 7.67075 3.92406 7.66737 3.68237C7.67711 3.52192 7.65012 3.36136 7.58844 3.21282C7.52676 3.06427 7.432 2.93162 7.31132 2.82488C7.07482 2.62545 6.62986 2.52573 5.97646 2.52573H4.40207V4.86997ZM0 21.6072L3.40384 21.3957C3.47807 21.9467 3.62826 22.3662 3.8544 22.6542C4.21951 23.121 4.74733 23.3544 5.43785 23.3544C5.94797 23.3544 6.34157 23.2349 6.61864 22.9959C6.74553 22.8971 6.84859 22.7712 6.92028 22.6275C6.99197 22.4838 7.03047 22.3259 7.03295 22.1655C7.03067 22.0117 6.99474 21.8603 6.92765 21.7218C6.86057 21.5833 6.76395 21.461 6.64454 21.3635C6.38559 21.1279 5.77491 20.9053 4.8125 20.6955C3.24329 20.3431 2.12421 19.8763 1.45527 19.2952C1.12979 19.0233 0.869908 18.682 0.694868 18.2965C0.519827 17.911 0.434118 17.4912 0.444091 17.0683C0.446957 16.4709 0.627142 15.8876 0.961982 15.392C1.3448 14.8335 1.88556 14.4009 2.51565 14.1489C3.20617 13.8472 4.15564 13.6963 5.36405 13.6963C6.84349 13.6963 7.97163 13.9706 8.74847 14.519C9.5253 15.0675 9.98752 15.9391 10.1351 17.134L6.76883 17.3313C6.68251 16.8155 6.49435 16.4377 6.20433 16.1979C5.91431 15.958 5.51769 15.8403 5.01448 15.8446C4.5993 15.8446 4.28641 15.9305 4.0758 16.1025C3.97673 16.1783 3.89665 16.276 3.84184 16.3879C3.78703 16.4998 3.75898 16.6227 3.75989 16.7472C3.76284 16.844 3.78765 16.9389 3.83248 17.0248C3.87731 17.1108 3.941 17.1856 4.01883 17.2436C4.18715 17.3958 4.58722 17.5372 5.21904 17.6679C6.78307 18.0031 7.90517 18.3427 8.58533 18.6865C9.26549 19.0304 9.75749 19.4564 10.0613 19.9644C10.3712 20.4799 10.5312 21.0709 10.5235 21.6717C10.5274 22.3991 10.3133 23.1112 9.90854 23.7167C9.48743 24.3482 8.88835 24.8417 8.18655 25.1351C7.44856 25.4575 6.51895 25.6187 5.39771 25.6187C3.42887 25.6187 2.06509 25.2413 1.30638 24.4865C0.547669 23.7318 0.11221 22.772 0 21.6072ZM21.104 20.7033L24.2399 21.6472C24.0664 22.4394 23.7272 23.1864 23.2442 23.8392C22.8041 24.4161 22.2253 24.8733 21.5611 25.1687C20.8895 25.467 20.035 25.6161 18.9975 25.6161C17.739 25.6161 16.711 25.4343 15.9135 25.0707C15.1159 24.707 14.4254 24.0662 13.8419 23.1481C13.2619 22.2308 12.9723 21.057 12.9732 19.6266C12.9732 17.7199 13.4824 16.2538 14.5009 15.2282C15.5195 14.2027 16.9609 13.6903 18.8253 13.6912C20.2849 13.6912 21.4316 13.9852 22.2654 14.5732C23.0992 15.1612 23.719 16.0638 24.1246 17.281L20.9655 17.9812C20.8913 17.7068 20.7742 17.4457 20.6185 17.2075C20.4272 16.943 20.1756 16.7273 19.8844 16.5783C19.5826 16.4285 19.2492 16.3529 18.9121 16.3578C18.1016 16.3578 17.4805 16.6827 17.049 17.3326C16.721 17.8149 16.5574 18.5718 16.5583 19.6034C16.5583 20.8808 16.7533 21.7568 17.1435 22.2313C17.5336 22.7058 18.0813 22.9426 18.7865 22.9418C19.4701 22.9418 19.988 22.7505 20.3402 22.368C20.6923 21.9854 20.9469 21.4305 21.104 20.7033ZM26.9963 13.891H30.5737V17.9245H34.4837V13.891H38.0766V25.4227H34.4837V20.7613H30.5737V25.4266H26.9963V13.891ZM40.3035 19.664C40.3035 17.7831 40.8301 16.3174 41.8831 15.2669C42.9361 14.2164 44.4035 13.692 46.2852 13.6938C48.2117 13.6938 49.6964 14.2095 50.739 15.2411C51.7817 16.2727 52.3044 17.7156 52.3069 19.5698C52.3069 20.9186 52.0791 22.0241 51.6233 22.8863C51.1798 23.7372 50.4926 24.4378 49.6489 24.8992C48.7857 25.3789 47.7128 25.6187 46.4302 25.6187C45.1251 25.6187 44.0462 25.4115 43.1934 24.9972C42.3172 24.5647 41.5922 23.8795 41.1127 23.0307C40.5724 22.135 40.3027 21.0127 40.3035 19.664ZM43.8809 19.6807C43.8809 20.8455 44.0967 21.682 44.5282 22.19C44.9598 22.6981 45.5511 22.9521 46.302 22.9521C47.0711 22.9521 47.6662 22.7032 48.0874 22.2055C48.5087 21.7078 48.7193 20.8137 48.7193 19.5234C48.7193 18.4377 48.4992 17.6442 48.059 17.1431C47.6187 16.6419 47.0223 16.3917 46.2696 16.3926C45.9424 16.3809 45.6167 16.443 45.3169 16.5743C45.0172 16.7056 44.7511 16.9027 44.5386 17.1508C44.101 17.6666 43.8817 18.5099 43.8809 19.6807Z" fill="#F9F9F9"/>
<path d="M50.7896 19.6633C50.7896 17.7824 51.3161 16.3167 52.3691 15.2663C53.4222 14.2158 54.8895 13.6914 56.7712 13.6931C58.6995 13.6931 60.1845 14.2089 61.2263 15.2405C62.2682 16.272 62.7891 17.7154 62.7891 19.5705C62.7891 20.9193 62.5616 22.0248 62.1068 22.887C61.6629 23.7376 60.9758 24.438 60.1323 24.8998C59.2691 25.3795 58.1962 25.6193 56.9136 25.6193C55.6077 25.6193 54.5287 25.4122 53.6768 24.9978C52.8005 24.5651 52.0752 23.8799 51.5949 23.0314C51.058 22.1348 50.7896 21.0121 50.7896 19.6633ZM54.3682 19.6801C54.3682 20.8449 54.584 21.6813 55.0155 22.1894C55.4471 22.6974 56.0392 22.9519 56.7919 22.9527C57.561 22.9527 58.1561 22.7039 58.5773 22.2061C58.9985 21.7084 59.2092 20.8144 59.2092 19.5241C59.2092 18.4383 58.9895 17.6449 58.5501 17.1437C58.1108 16.6425 57.5144 16.3924 56.7608 16.3933C56.433 16.3807 56.1066 16.4423 55.8061 16.5734C55.5056 16.7045 55.2389 16.9017 55.0259 17.1502C54.5866 17.6659 54.3673 18.5093 54.3682 19.6801Z" fill="#F9F9F9"/>
<path d="M62.4161 13.8904H65.9948V22.5826H71.5789V25.4195H62.4161V13.8904Z" fill="#F9F9F9"/>
</svg>
