<svg width="265" height="265" viewBox="0 0 265 265" fill="none" xmlns="http://www.w3.org/2000/svg">
<path d="M243.561 259.798H21.4391C12.4562 259.798 5.17578 252.517 5.17578 243.537V21.4391C5.17578 12.4562 12.4562 5.17578 21.4391 5.17578H243.561C252.544 5.17578 259.824 12.4583 259.824 21.4391V243.537C259.824 252.517 252.544 259.798 243.561 259.798V259.798Z" fill="#EDE6F5"/>
<path d="M243.561 264.976H21.4391C9.61765 264.976 0 255.358 0 243.537V21.4391C0 9.61765 9.61765 0 21.4391 0H243.561C255.382 0 265 9.61765 265 21.4391V243.535C265 255.358 255.382 264.976 243.561 264.976ZM21.4391 10.3516C15.3252 10.3516 10.3516 15.3252 10.3516 21.4391V243.535C10.3516 249.651 15.3252 254.622 21.4391 254.622H243.561C249.675 254.622 254.648 249.651 254.648 243.535V21.4391C254.648 15.3252 249.675 10.3516 243.561 10.3516H21.4391Z" fill="#003466"/>
<path d="M112.523 217.87H58.7552C52.3239 217.87 47.1097 212.656 47.1097 206.225V152.463C47.1097 146.032 52.3239 140.818 58.7552 140.818H112.523C118.954 140.818 124.168 146.032 124.168 152.463V206.225C124.168 212.656 118.956 217.87 112.523 217.87V217.87Z" fill="#0087C1"/>
<path d="M112.523 223.046H58.7552C49.4792 223.046 41.9339 215.501 41.9339 206.225V152.463C41.9339 143.187 49.4792 135.642 58.7552 135.642H112.525C121.799 135.642 129.346 143.187 129.346 152.463V206.225C129.344 215.501 121.799 223.046 112.523 223.046V223.046ZM58.7552 145.993C55.1888 145.993 52.2855 148.895 52.2855 152.463V206.225C52.2855 209.793 55.1888 212.694 58.7552 212.694H112.525C116.091 212.694 118.994 209.793 118.994 206.225V152.463C118.994 148.895 116.091 145.993 112.525 145.993H58.7552Z" fill="#003466"/>
<path d="M206.245 217.87H152.477C146.044 217.87 140.832 212.656 140.832 206.225V152.463C140.832 146.032 146.044 140.818 152.477 140.818H206.245C212.676 140.818 217.89 146.032 217.89 152.463V206.225C217.89 212.656 212.676 217.87 206.245 217.87V217.87Z" fill="#85CBEF"/>
<path d="M206.245 223.046H152.477C143.201 223.046 135.656 215.501 135.656 206.225V152.463C135.656 143.187 143.201 135.642 152.477 135.642H206.245C215.521 135.642 223.066 143.187 223.066 152.463V206.225C223.066 215.501 215.521 223.046 206.245 223.046V223.046ZM152.477 145.993C148.909 145.993 146.008 148.895 146.008 152.463V206.225C146.008 209.793 148.909 212.694 152.477 212.694H206.245C209.811 212.694 212.715 209.793 212.715 206.225V152.463C212.715 148.895 209.811 145.993 206.245 145.993H152.477Z" fill="#003466"/>
<path d="M112.523 124.158H58.7552C52.3239 124.158 47.1097 118.944 47.1097 112.513V58.7512C47.1097 52.3199 52.3239 47.1057 58.7552 47.1057H112.523C118.954 47.1057 124.168 52.3199 124.168 58.7512V112.513C124.168 118.944 118.956 124.158 112.523 124.158Z" fill="#85CBEF"/>
<path d="M112.523 129.334H58.7552C49.4792 129.334 41.9339 121.789 41.9339 112.513V58.7512C41.9339 49.4752 49.4792 41.9299 58.7552 41.9299H112.525C121.799 41.9299 129.346 49.4752 129.346 58.7512V112.513C129.344 121.789 121.799 129.334 112.523 129.334ZM58.7552 52.2815C55.1888 52.2815 52.2855 55.1827 52.2855 58.7512V112.513C52.2855 116.079 55.1888 118.982 58.7552 118.982H112.525C116.091 118.982 118.994 116.079 118.994 112.513V58.7512C118.994 55.1827 116.091 52.2815 112.525 52.2815H58.7552Z" fill="#003466"/>
<path d="M206.245 124.158H152.477C146.044 124.158 140.832 118.944 140.832 112.513V58.7512C140.832 52.3199 146.044 47.1057 152.477 47.1057H206.245C212.676 47.1057 217.89 52.3199 217.89 58.7512V112.513C217.89 118.944 212.676 124.158 206.245 124.158Z" fill="#0087C1"/>
<path d="M206.245 129.334H152.477C143.201 129.334 135.656 121.789 135.656 112.513V58.7512C135.656 49.4752 143.201 41.9299 152.477 41.9299H206.245C215.521 41.9299 223.066 49.4752 223.066 58.7512V112.513C223.066 121.789 215.521 129.334 206.245 129.334ZM152.477 52.2815C148.909 52.2815 146.008 55.1827 146.008 58.7512V112.513C146.008 116.079 148.909 118.982 152.477 118.982H206.245C209.811 118.982 212.715 116.079 212.715 112.513V58.7512C212.715 55.1827 209.811 52.2815 206.245 52.2815H152.477Z" fill="#003466"/>
<path d="M85.639 159.95L92.7658 171.583L106.033 174.766L97.1692 185.137L98.2428 198.738L85.639 193.514L73.0351 198.738L74.1087 185.137L65.2452 174.766L78.5122 171.583L85.639 159.95Z" fill="#F5D34D"/>
<path d="M98.2428 203.914C97.5736 203.914 96.9003 203.782 96.2614 203.519L85.641 199.116L75.0185 203.519C73.3546 204.209 71.4521 203.984 69.9944 202.925C68.5366 201.866 67.734 200.125 67.8775 198.329L68.7813 186.868L61.3108 178.128C60.1402 176.759 59.7681 174.879 60.3241 173.166C60.8801 171.452 62.2873 170.152 64.0402 169.731L75.2207 167.05L81.2274 157.247C82.1675 155.71 83.8396 154.774 85.641 154.774C87.4424 154.774 89.1144 155.71 90.0545 157.247L96.0593 167.05L107.24 169.731C108.993 170.152 110.4 171.452 110.956 173.166C111.512 174.879 111.14 176.757 109.969 178.128L102.499 186.868L103.404 198.329C103.546 200.125 102.743 201.866 101.286 202.925C100.388 203.578 99.3204 203.914 98.2428 203.914ZM85.639 188.338C86.3142 188.338 86.9875 188.469 87.6203 188.732L92.42 190.721L92.0116 185.544C91.9025 184.175 92.3432 182.818 93.2348 181.775L96.6092 177.829L91.5588 176.617C90.2244 176.296 89.0699 175.459 88.3522 174.286L85.641 169.859L82.9277 174.286C82.21 175.459 81.0556 176.296 79.7212 176.617L74.6708 177.829L78.0451 181.775C78.9367 182.82 79.3775 184.175 79.2683 185.544L78.8599 190.721L83.6596 188.732C84.2924 188.469 84.9657 188.338 85.639 188.338Z" fill="#003466"/>
<path d="M179.361 63.8077L186.488 75.4411L199.755 78.6234L190.891 88.9951L191.965 102.596L179.361 97.3734L166.757 102.596L167.831 88.9951L158.967 78.6234L172.234 75.4411L179.361 63.8077Z" fill="#F5D34D"/>
<path d="M191.965 107.771C191.294 107.771 190.62 107.642 189.984 107.377L179.361 102.974L168.739 107.377C167.077 108.067 165.172 107.842 163.714 106.783C162.259 105.723 161.456 103.985 161.598 102.189L162.501 90.7278L155.033 81.9856C153.862 80.6168 153.488 78.7386 154.046 77.0241C154.602 75.3117 156.009 74.0117 157.76 73.5911L168.943 70.9082L174.947 61.1045C175.89 59.568 177.562 58.6319 179.361 58.6319C181.162 58.6319 182.834 59.57 183.775 61.1045L189.781 70.9082L200.962 73.5911C202.715 74.0117 204.122 75.3117 204.678 77.0241C205.234 78.7386 204.862 80.6168 203.691 81.9856L196.221 90.7278L197.124 102.189C197.268 103.985 196.465 105.723 195.008 106.783C194.108 107.436 193.04 107.771 191.965 107.771V107.771ZM168.393 81.6864L171.765 85.6329C172.657 86.6782 173.098 88.0348 172.99 89.4035L172.582 94.5793L177.38 92.5919C178.647 92.0662 180.073 92.0662 181.342 92.5919L186.14 94.5793L185.732 89.4035C185.623 88.0328 186.063 86.6782 186.957 85.6329L190.329 81.6864L185.279 80.4753C183.944 80.1538 182.79 79.3168 182.072 78.1462L179.361 73.7165L176.648 78.1462C175.93 79.3168 174.778 80.1538 173.441 80.4753L168.393 81.6864Z" fill="#003466"/>
<path d="M199.241 174.501C199.241 168.7 194.539 163.997 188.736 163.997C184.674 163.997 181.152 166.304 179.406 169.677C177.689 166.209 174.117 163.822 169.984 163.822C164.181 163.822 159.479 168.526 159.479 174.327C159.479 184.622 179.286 198.119 179.286 198.119C179.286 198.119 199.241 184.622 199.241 174.501Z" fill="#F05F90"/>
<path d="M179.286 203.295C178.269 203.295 177.25 202.996 176.373 202.397C172.687 199.886 154.303 186.73 154.303 174.327C154.303 165.682 161.339 158.648 169.984 158.648C173.506 158.648 176.812 159.796 179.484 161.834C182.117 159.907 185.337 158.822 188.736 158.822C197.383 158.822 204.417 165.855 204.417 174.503C204.417 186.749 185.9 199.896 182.185 202.407C181.31 203 180.299 203.295 179.286 203.295V203.295ZM169.984 168.997C167.044 168.997 164.655 171.389 164.655 174.327C164.655 178.635 172.428 186.48 179.296 191.738C186.223 186.486 194.066 178.69 194.066 174.501C194.066 171.563 191.676 169.173 188.736 169.173C186.739 169.173 184.923 170.279 184.001 172.058C183.109 173.777 181.336 174.852 179.406 174.852C179.389 174.852 179.373 174.852 179.357 174.852C177.406 174.834 175.631 173.72 174.766 171.971C173.858 170.138 172.026 168.997 169.984 168.997Z" fill="#003466"/>
<path d="M106.033 80.1033C106.033 74.3028 101.33 69.6001 95.5275 69.6001C91.4637 69.6001 87.9438 71.907 86.1949 75.2793C84.4805 71.8119 80.9059 69.4242 76.7754 69.4242C70.9729 69.4242 66.2682 74.1289 66.2682 79.9294C66.2682 90.2244 86.0757 103.722 86.0757 103.722C86.0757 103.722 106.033 90.2244 106.033 80.1033Z" fill="#F05F90"/>
<path d="M86.0777 108.898C85.0587 108.898 84.0417 108.598 83.1623 108C79.4765 105.489 61.0924 92.3331 61.0924 79.9294C61.0924 71.2843 68.1282 64.2505 76.7754 64.2505C80.2954 64.2505 83.603 65.3988 86.2738 67.4348C88.9082 65.51 92.1269 64.4243 95.5275 64.4243C104.173 64.4243 111.209 71.4581 111.209 80.1053C111.209 92.3513 92.6889 105.499 88.9769 108.01C88.1015 108.602 87.0886 108.898 86.0777 108.898ZM76.7754 74.6C73.8357 74.6 71.444 76.9918 71.444 79.9294C71.444 84.2379 79.2178 92.0824 86.0878 97.3411C93.0124 92.0885 100.857 84.2925 100.857 80.1033C100.857 77.1656 98.4652 74.7759 95.5275 74.7759C93.528 74.7759 91.7124 75.8818 90.7905 77.661C89.9009 79.3795 88.1278 80.4551 86.1949 80.4551C86.1788 80.4551 86.1626 80.4551 86.1464 80.4551C84.1954 80.4369 82.4203 79.3229 81.5549 77.5741C80.6492 75.7403 78.8174 74.6 76.7754 74.6Z" fill="#003466"/>
<path d="M25.9274 120.458C23.0686 120.458 20.7516 118.141 20.7516 115.282V36C20.7516 27.5914 27.5934 20.7496 36.004 20.7496H115.295C118.151 20.7496 120.47 23.0666 120.47 25.9254C120.47 28.7842 118.151 31.1012 115.295 31.1012H36.004C33.3009 31.1012 31.1032 33.2989 31.1032 36V115.282C31.1032 118.141 28.7862 120.458 25.9274 120.458Z" fill="#003466"/>
<path d="M239.073 115.27C236.214 115.27 233.897 112.953 233.897 110.095V36C233.897 33.2989 231.699 31.1012 228.996 31.1012H149.705C146.849 31.1012 144.53 28.7842 144.53 25.9254C144.53 23.0666 146.849 20.7496 149.705 20.7496H228.996C237.407 20.7496 244.248 27.5914 244.248 36V110.095C244.248 112.953 241.931 115.27 239.073 115.27Z" fill="#003466"/>
<path d="M228.996 244.226H149.705C146.849 244.226 144.53 241.907 144.53 239.05C144.53 236.192 146.849 233.875 149.705 233.875H228.996C231.699 233.875 233.897 231.677 233.897 228.974V154.879C233.897 152.022 236.214 149.703 239.073 149.703C241.931 149.703 244.248 152.022 244.248 154.879V228.974C244.248 237.384 237.407 244.226 228.996 244.226Z" fill="#003466"/>
<path d="M115.295 244.226H36.004C27.5934 244.226 20.7516 237.384 20.7516 228.974V149.691C20.7516 146.834 23.0686 144.516 25.9274 144.516C28.7862 144.516 31.1032 146.834 31.1032 149.691V228.974C31.1032 231.677 33.3009 233.875 36.004 233.875H115.295C118.151 233.875 120.47 236.192 120.47 239.05C120.47 241.907 118.151 244.226 115.295 244.226Z" fill="#003466"/>
<path d="M239.075 136.622C238.733 136.622 238.395 136.592 238.06 136.525C237.728 136.457 237.403 136.36 237.091 136.23C236.782 136.101 236.481 135.939 236.202 135.753C235.917 135.567 235.654 135.351 235.415 135.112C234.447 134.144 233.899 132.813 233.899 131.453C233.899 131.117 233.929 130.773 233.996 130.438C234.063 130.106 234.162 129.781 234.291 129.471C234.42 129.16 234.58 128.861 234.768 128.576C234.958 128.297 235.171 128.032 235.415 127.793C236.614 126.588 238.401 126.034 240.083 126.376C240.415 126.443 240.741 126.542 241.05 126.671C241.361 126.801 241.662 126.96 241.946 127.146C242.231 127.338 242.495 127.551 242.732 127.793C243.696 128.756 244.25 130.086 244.25 131.453C244.25 132.813 243.696 134.144 242.732 135.112C242.495 135.351 242.231 135.567 241.946 135.753C241.667 135.939 241.361 136.101 241.05 136.23C240.741 136.36 240.415 136.457 240.083 136.525C239.752 136.592 239.41 136.622 239.075 136.622Z" fill="#003466"/>
<path d="M25.9315 136.622C25.5898 136.622 25.2481 136.592 24.9165 136.525C24.585 136.457 24.2595 136.36 23.9481 136.23C23.6327 136.101 23.3335 135.939 23.0525 135.753C22.7694 135.567 22.5045 135.351 22.266 135.112C21.3036 134.144 20.7496 132.813 20.7496 131.453C20.7496 131.111 20.786 130.773 20.8527 130.438C20.9215 130.106 21.0185 129.781 21.1479 129.471C21.2773 129.16 21.437 128.861 21.6251 128.576C21.8111 128.297 22.0274 128.032 22.266 127.793C22.5045 127.551 22.7674 127.338 23.0525 127.146C23.3315 126.96 23.6327 126.801 23.9481 126.671C24.2595 126.542 24.585 126.443 24.9165 126.376C25.5837 126.241 26.2711 126.241 26.9404 126.376C27.2699 126.443 27.5914 126.542 27.9068 126.671C28.2181 126.801 28.5173 126.96 28.7984 127.146C29.0814 127.338 29.3463 127.551 29.5849 127.793C30.5533 128.756 31.1052 130.086 31.1052 131.453C31.1052 132.813 30.5533 134.144 29.5849 135.112C29.3463 135.351 29.0814 135.567 28.7984 135.753C28.5173 135.939 28.2181 136.101 27.9068 136.23C27.5914 136.36 27.2699 136.457 26.9404 136.525C26.6027 136.592 26.2671 136.622 25.9315 136.622Z" fill="#003466"/>
</svg>
